<svg width="56" height="56" viewBox="0 0 56 56" fill="none" xmlns="http://www.w3.org/2000/svg">
<rect width="56" height="56" rx="28" fill="#DDEBFF"/>
<path d="M28 20H26C22.2288 20 20.3431 20 19.1716 21.1716C18 22.3431 18 24.2288 18 28C18 31.7712 18 33.6569 19.1716 34.8284C20.3431 36 22.2288 36 26 36H28M31 20.0009C34.1143 20.01 35.7653 20.1085 36.8284 21.1716C38 22.3431 38 24.2288 38 28C38 31.7712 38 33.6569 36.8284 34.8284C35.7653 35.8915 34.1143 35.99 31 35.9991" stroke="#005FC7" stroke-width="2" stroke-linecap="round"/>
<mask id="path-3-inside-1_140_5971" fill="white">
<path d="M25 28C25 28.5523 24.5523 29 24 29C23.4477 29 23 28.5523 23 28C23 27.4477 23.4477 27 24 27C24.5523 27 25 27.4477 25 28Z"/>
</mask>
<path d="M25 28C25 28.5523 24.5523 29 24 29C23.4477 29 23 28.5523 23 28C23 27.4477 23.4477 27 24 27C24.5523 27 25 27.4477 25 28Z" fill="#005FC7"/>
<path d="M23 28C23 27.4477 23.4477 27 24 27V31C25.6568 31 27 29.6569 27 28H23ZM24 27C24.5523 27 25 27.4477 25 28H21C21 29.6569 22.3432 31 24 31V27ZM25 28C25 28.5523 24.5523 29 24 29V25C22.3432 25 21 26.3431 21 28H25ZM24 29C23.4477 29 23 28.5523 23 28H27C27 26.3431 25.6568 25 24 25V29Z" fill="#005FC7" mask="url(#path-3-inside-1_140_5971)"/>
<mask id="path-5-inside-2_140_5971" fill="white">
<path d="M29 28C29 28.5523 28.5523 29 28 29C27.4477 29 27 28.5523 27 28C27 27.4477 27.4477 27 28 27C28.5523 27 29 27.4477 29 28Z"/>
</mask>
<path d="M29 28C29 28.5523 28.5523 29 28 29C27.4477 29 27 28.5523 27 28C27 27.4477 27.4477 27 28 27C28.5523 27 29 27.4477 29 28Z" fill="#005FC7"/>
<path d="M27 28C27 27.4477 27.4477 27 28 27V31C29.6569 31 31 29.6569 31 28H27ZM28 27C28.5523 27 29 27.4477 29 28H25C25 29.6569 26.3431 31 28 31V27ZM29 28C29 28.5523 28.5523 29 28 29V25C26.3431 25 25 26.3431 25 28H29ZM28 29C27.4477 29 27 28.5523 27 28H31C31 26.3431 29.6569 25 28 25V29Z" fill="#005FC7" mask="url(#path-5-inside-2_140_5971)"/>
<path d="M31 18V38V18Z" fill="#005FC7"/>
<path d="M31 18V38" stroke="#005FC7" stroke-width="2" stroke-linecap="round"/>
</svg>
