<svg width="56" height="56" viewBox="0 0 56 56" fill="none" xmlns="http://www.w3.org/2000/svg">
<rect width="56" height="56" rx="28" fill="#FFDBDB"/>
<g clip-path="url(#clip0_1211_7070)">
<path d="M38.6853 30.5927L38.6854 30.5922C38.9216 29.6294 38.9746 29.175 38.9746 28C38.9746 26.825 38.9216 26.3706 38.6854 25.4078L38.6853 25.4073C37.5959 20.9577 33.9359 17.6854 29.3706 17.0876C29.2134 17.0671 28.768 17.0417 28.2847 17.0261C28.0528 17.0186 27.8283 17.0139 27.6475 17.0129C27.5569 17.0124 27.4812 17.0128 27.4231 17.0141C27.3693 17.0153 27.3472 17.0169 27.3465 17.0168C27.2501 17.0279 26.9906 17.0546 26.7599 17.0775L38.6853 30.5927ZM38.6853 30.5927C37.9959 33.4079 36.2749 35.7895 33.809 37.3395L38.6853 30.5927ZM29.4076 17.3527L29.4078 17.3527C31.2561 17.5917 32.9815 18.3041 34.5147 19.45L34.5149 19.4501C34.8203 19.6785 35.2268 20.0542 35.5864 20.4137C35.9459 20.7732 36.3216 21.1798 36.55 21.4852L36.5502 21.4855C37.469 22.7155 38.156 24.1683 38.4712 25.5853L38.4714 25.586C38.824 27.1761 38.824 28.8239 38.4714 30.414L38.4712 30.4146C37.7831 33.508 35.6155 36.234 32.7399 37.6403L32.7398 37.6404C31.7045 38.1465 30.6352 38.4776 29.4716 38.6544L29.4076 17.3527ZM29.4076 17.3527C27.288 17.0791 25.2101 17.4126 23.3026 18.3408L23.3022 18.341C22.1519 18.9013 21.3386 19.4863 20.4125 20.4124C19.4864 21.3385 18.9014 22.1518 18.3411 23.3021L18.3408 23.3026M29.4076 17.3527L18.3408 23.3026M18.3408 23.3026C17.6054 24.8148 17.2711 26.2938 17.2711 28C17.2711 29.2754 17.4433 30.3477 17.8433 31.5046C18.0768 32.1832 18.5291 33.1355 18.8948 33.7116C20.6054 36.4122 23.3272 38.1676 26.5286 38.6544L18.3408 23.3026ZM27.6791 31.795C27.3956 31.888 27.1151 32.1295 26.9786 32.398M27.6791 31.795L28.0001 34C27.5456 34 27.0821 33.67 26.9411 33.2425C26.8556 32.9875 26.8736 32.608 26.9786 32.398M27.6791 31.795C27.8561 31.7365 28.3256 31.78 28.4996 31.87L27.6791 31.795ZM26.9786 32.398L27.87 32.8512L27.8699 32.8513C27.87 32.8513 27.8739 32.8441 27.8839 32.8316C27.8855 32.8296 27.8872 32.8276 27.889 32.8255M26.9786 32.398L27.873 32.8452C27.8839 32.8235 27.8894 32.8082 27.8916 32.8017C27.8938 32.7949 27.8941 32.7929 27.8933 32.7964C27.8921 32.8018 27.8904 32.8117 27.889 32.8255M27.889 32.8255C27.899 32.8139 27.9115 32.8011 27.9261 32.7885C27.9345 32.7813 27.9427 32.7749 27.9506 32.7693M27.889 32.8255C27.8884 32.8323 27.8878 32.8401 27.8874 32.8487C27.8862 32.8743 27.8872 32.8983 27.8894 32.9169C27.8898 32.9205 27.8903 32.9236 27.8906 32.926M27.9506 32.7693L27.8891 32.9246C27.8872 32.9197 27.8868 32.9206 27.8906 32.926M27.9506 32.7693C27.9658 32.77 27.9821 32.7711 27.999 32.7726C28.0206 32.7746 28.0415 32.7772 28.0607 32.7801C28.0609 32.7801 28.0612 32.7801 28.0615 32.7802C28.0687 32.7867 28.0763 32.7941 28.0842 32.802C28.0945 32.8125 28.1037 32.8225 28.1117 32.8317M27.9506 32.7693L28.1117 32.8317M27.8906 32.926C27.8914 32.927 27.8923 32.9283 27.8933 32.9296C27.9013 32.94 27.915 32.9541 27.9343 32.9678C27.9535 32.9816 27.9725 32.9908 27.9874 32.9959C27.9932 32.9979 27.9975 32.999 28.0001 32.9995M27.8906 32.926C27.8915 32.932 27.8922 32.9345 27.892 32.9337C27.8919 32.9332 27.8915 32.9317 27.8907 32.9293C27.8906 32.9287 27.8904 32.9281 27.8901 32.9274L28.0001 32.9995M28.0001 32.9995C27.998 33 27.997 33.0001 27.997 33.0001C27.997 33.0001 27.998 33 28.0001 33C28.0022 33 28.0032 33.0001 28.0032 33.0001C28.0032 33.0001 28.0022 33 28.0001 32.9995ZM28.0001 32.9995C28.0027 32.999 28.0069 32.9979 28.0128 32.9959C28.0277 32.9908 28.0467 32.9816 28.0659 32.9678C28.0852 32.9541 28.0989 32.94 28.1069 32.9296C28.1079 32.9283 28.1088 32.927 28.1096 32.926M28.0001 32.9995L28.11 32.9274C28.1098 32.9281 28.1096 32.9287 28.1095 32.9293C28.1082 32.9333 28.108 32.9347 28.1083 32.9333C28.1085 32.9324 28.109 32.9299 28.1096 32.926M28.1096 32.926C28.1099 32.9236 28.1104 32.9205 28.1108 32.9169C28.1129 32.8983 28.114 32.8743 28.1128 32.8487C28.1125 32.8426 28.1122 32.8369 28.1117 32.8317M28.1096 32.926L28.1117 32.8317M19.8518 20.6178C17.9044 22.7944 16.9224 25.4805 17.0131 28.3476L19.8518 20.6178ZM19.8518 20.6178C21.602 18.6619 24.2032 17.3329 26.7595 17.0776L19.8518 20.6178ZM25.4051 38.6857C28.2304 39.3842 31.3478 38.8842 33.8088 37.3396L25.4051 38.6857ZM25.4051 38.6857C20.571 37.4906 17.1713 33.2988 17.0131 28.3479L25.4051 38.6857ZM28.0947 23.4159C28.0949 23.4192 28.0951 23.4226 28.0953 23.426C28.1199 23.8217 28.1177 24.5822 28.1116 26.2203C28.1056 27.7079 28.1025 28.4269 28.0907 28.7991C28.0901 28.8198 28.0894 28.8387 28.0887 28.8561C28.0611 28.8571 28.0313 28.8577 28.0001 28.8577C27.9689 28.8577 27.9391 28.8571 27.9115 28.8561C27.9108 28.8387 27.9101 28.8198 27.9095 28.7991C27.8977 28.4269 27.8946 27.7079 27.8886 26.2205C27.8841 24.9343 27.8834 24.1996 27.8903 23.7634C27.8931 23.5927 27.8973 23.4816 27.9008 23.4122C27.9426 23.412 27.9876 23.4124 28.0329 23.4136L28.0333 23.4136C28.0559 23.4142 28.0762 23.415 28.0947 23.4159ZM27.777 28.8448C27.7752 28.8445 27.7756 28.8445 27.7778 28.845L27.777 28.8448ZM26.5292 38.6545C26.9227 38.7148 27.4833 38.7391 28.0001 38.7391C28.5166 38.7391 29.0768 38.7148 29.4703 38.6547L26.5292 38.6545ZM28.2232 28.8448C28.223 28.8449 28.2227 28.8449 28.2223 28.845L28.2232 28.8448Z" fill="#444444" stroke="#D72525" stroke-width="2"/>
</g>
<defs>
<clipPath id="clip0_1211_7070">
<rect width="24" height="24" fill="white" transform="translate(16 16)"/>
</clipPath>
</defs>
</svg>
