<svg width="25" height="24" viewBox="0 0 25 24" fill="none" xmlns="http://www.w3.org/2000/svg">
<g clip-path="url(#clip0_54_441)">
<rect x="0.5" width="24" height="24" rx="4" fill="white"/>
<path d="M1.35714 0C1.13393 0 0.935268 0.0848197 0.761161 0.254464C0.587054 0.424109 0.5 0.625002 0.5 0.857143V23.1429C0.5 23.375 0.587054 23.5759 0.761161 23.7455C0.935268 23.9152 1.13393 24 1.35714 24H23.6429C23.8661 24 24.0647 23.9152 24.2388 23.7455C24.4129 23.5759 24.5 23.375 24.5 23.1429V0.857143C24.5 0.625002 24.4129 0.424109 24.2388 0.254464C24.0647 0.0848197 23.8661 0 23.6429 0H1.35714ZM5.87054 6H10.4911L14.5089 12V6H19.1295V18H14.5089L10.4911 12V18H5.87054V6Z" fill="#1EC800"/>
</g>
<defs>
<clipPath id="clip0_54_441">
<rect x="0.5" width="24" height="24" rx="4" fill="white"/>
</clipPath>
</defs>
</svg>
