<svg width="19" height="18" viewBox="0 0 19 18" fill="none" xmlns="http://www.w3.org/2000/svg">
<g clip-path="url(#clip0_1316_1207)">
<path d="M1.25 3V7.5H5.75" stroke="white" stroke-width="1.5" stroke-linecap="round" stroke-linejoin="round"/>
<path d="M17.75 15V10.5H13.25" stroke="white" stroke-width="2" stroke-linecap="round" stroke-linejoin="round"/>
<path d="M15.8675 6.74993C15.4871 5.67502 14.8407 4.71399 13.9884 3.9565C13.1361 3.19901 12.1059 2.66976 10.9938 2.41813C9.88167 2.1665 8.72393 2.20069 7.62861 2.51751C6.53328 2.83434 5.53606 3.42347 4.73 4.22993L1.25 7.49993M17.75 10.4999L14.27 13.7699C13.4639 14.5764 12.4667 15.1655 11.3714 15.4824C10.2761 15.7992 9.11833 15.8334 8.00621 15.5817C6.8941 15.3301 5.86385 14.8009 5.0116 14.0434C4.15935 13.2859 3.51288 12.3248 3.1325 11.2499" stroke="white" stroke-width="2" stroke-linecap="round" stroke-linejoin="round"/>
</g>
<defs>
<clipPath id="clip0_1316_1207">
<rect width="18" height="18" fill="white" transform="translate(0.5)"/>
</clipPath>
</defs>
</svg>
