<svg width="25" height="24" viewBox="0 0 25 24" fill="none" xmlns="http://www.w3.org/2000/svg">
<g clip-path="url(#clip0_54_439)">
<rect x="0.5" width="24" height="24" rx="4" fill="#444444"/>
<path d="M22.625 0H2.375C1.339 0 0.5 0.84 0.5 1.875V22.125C0.5 23.161 1.34 24 2.375 24H22.625C23.661 24 24.5 23.16 24.5 22.125V1.875C24.5 0.839 23.66 0 22.625 0ZM12.5 18.75C11.909 18.75 11.33 18.709 10.768 18.63C10.206 19.026 6.955 21.309 6.648 21.352C6.648 21.352 6.523 21.401 6.416 21.338C6.309 21.275 6.328 21.109 6.328 21.109C6.36 20.889 7.171 18.091 7.32 17.576C4.575 16.216 2.75 13.807 2.75 11.063C2.75 6.817 7.115 3.375 12.5 3.375C17.885 3.375 22.25 6.817 22.25 11.063C22.25 15.308 17.885 18.75 12.5 18.75ZM8.55 9.867H7.672V13.209C7.672 13.505 7.42 13.746 7.109 13.746C6.798 13.746 6.547 13.506 6.547 13.209V9.867H5.669C5.53002 9.85673 5.40006 9.79428 5.30522 9.69217C5.21038 9.59006 5.15767 9.45586 5.15767 9.3165C5.15767 9.17714 5.21038 9.04294 5.30522 8.94083C5.40006 8.83872 5.53002 8.77627 5.669 8.766H8.549C8.68798 8.77627 8.81794 8.83872 8.91278 8.94083C9.00762 9.04294 9.06033 9.17714 9.06033 9.3165C9.06033 9.45586 9.00762 9.59006 8.91278 9.69217C8.81794 9.79428 8.68798 9.85673 8.549 9.867H8.55ZM19.537 12.824C19.5819 12.8828 19.6147 12.95 19.6334 13.0216C19.6521 13.0931 19.6564 13.1677 19.646 13.241C19.6357 13.3141 19.6111 13.3844 19.5735 13.4479C19.5359 13.5114 19.4861 13.5668 19.427 13.611C19.3299 13.685 19.2111 13.7251 19.089 13.725C19.0017 13.7255 18.9155 13.7054 18.8373 13.6665C18.7592 13.6276 18.6913 13.5709 18.639 13.501L17.32 11.754L17.125 11.949V13.176C17.1247 13.3251 17.0655 13.468 16.9602 13.5735C16.8549 13.679 16.7121 13.7385 16.563 13.739C16.4137 13.739 16.2705 13.6797 16.1649 13.5741C16.0593 13.4685 16 13.3253 16 13.176V9.328C16.0061 9.18292 16.0681 9.04581 16.1729 8.94532C16.2777 8.84483 16.4173 8.78872 16.5625 8.78872C16.7077 8.78872 16.8473 8.84483 16.9521 8.94532C17.0569 9.04581 17.1189 9.18292 17.125 9.328V10.538L18.695 8.968C18.736 8.92754 18.7846 8.89558 18.8379 8.87396C18.8913 8.85234 18.9484 8.84148 19.006 8.842C19.146 8.842 19.288 8.903 19.394 9.009C19.4905 9.10362 19.5492 9.2302 19.559 9.365C19.5642 9.42772 19.5558 9.49083 19.5344 9.55002C19.513 9.60921 19.4791 9.66309 19.435 9.708L18.153 10.989L19.537 12.824ZM11.187 9.322C11.092 9.052 10.804 8.774 10.437 8.766C10.071 8.774 9.783 9.052 9.688 9.321L8.343 12.862C8.172 13.392 8.321 13.59 8.476 13.662C8.58809 13.713 8.70985 13.7393 8.833 13.739C9.068 13.739 9.247 13.644 9.301 13.491L9.58 12.761H11.295L11.574 13.491C11.628 13.644 11.807 13.739 12.042 13.739C12.1652 13.7389 12.287 13.7123 12.399 13.661C12.554 13.59 12.703 13.393 12.532 12.861L11.187 9.322ZM9.876 11.765L10.438 10.169L10.999 11.765H9.876ZM15.781 13.148C15.7779 13.2879 15.7193 13.4208 15.6183 13.5175C15.5172 13.6143 15.3819 13.6669 15.242 13.664H13.438C13.3687 13.6656 13.2997 13.6535 13.235 13.6284C13.1703 13.6034 13.1112 13.5658 13.0611 13.5179C13.0109 13.47 12.9707 13.4126 12.9427 13.3492C12.9148 13.2857 12.8996 13.2173 12.898 13.148V9.328C12.898 9.018 13.156 8.766 13.473 8.766C13.79 8.766 14.047 9.018 14.047 9.328V12.633H15.242C15.539 12.633 15.781 12.864 15.781 13.148Z" fill="#FFE812"/>
</g>
<defs>
<clipPath id="clip0_54_439">
<rect x="0.5" width="24" height="24" rx="4" fill="white"/>
</clipPath>
</defs>
</svg>
